<svg xmlns="http://www.w3.org/2000/svg" viewBox="0 0 1080 321" width="1080" height="321">
	<defs>
		<linearGradient id="grd1" gradientUnits="userSpaceOnUse"  x1="200.94" y1="157" x2="425.32" y2="157">
			<stop offset="0" stop-color="#3696ff"  />
			<stop offset="0.32" stop-color="#1e79f1"  />
			<stop offset="0.64" stop-color="#0c5ac0"  />
			<stop offset="0.86" stop-color="#073f82"  />
			<stop offset="1" stop-color="#042d59"  />
		</linearGradient>
		<linearGradient id="grd2" gradientUnits="userSpaceOnUse"  x1="329.22" y1="79.81" x2="273.8" y2="217.81">
			<stop offset="0" stop-color="#3696ff"  />
			<stop offset="0.28" stop-color="#3494fe"  />
			<stop offset="0.38" stop-color="#2f8dfb"  />
			<stop offset="0.46" stop-color="#2582f5"  />
			<stop offset="0.49" stop-color="#1e79f1"  />
			<stop offset="0.68" stop-color="#0c5ac0"  />
			<stop offset="0.88" stop-color="#073f82"  />
			<stop offset="1" stop-color="#042d59"  />
		</linearGradient>
		<linearGradient id="grd3" gradientUnits="userSpaceOnUse"  x1="10906.885" y1="11355.833" x2="10279.704" y2="11991.755">
			<stop offset="0" stop-color="#3696ff"  />
			<stop offset="0.32" stop-color="#1e79f1"  />
			<stop offset="0.64" stop-color="#0c5ac0"  />
			<stop offset="0.86" stop-color="#073f82"  />
			<stop offset="1" stop-color="#042d59"  />
		</linearGradient>
		<linearGradient id="grd4" gradientUnits="userSpaceOnUse"  x1="10583.738" y1="12598.298" x2="10583.738" y2="10551.88">
			<stop offset="0" stop-color="#3696ff"  />
			<stop offset="0.32" stop-color="#1e79f1"  />
			<stop offset="0.64" stop-color="#0c5ac0"  />
			<stop offset="0.86" stop-color="#073f82"  />
			<stop offset="1" stop-color="#042d59"  />
		</linearGradient>
		<linearGradient id="grd5" gradientUnits="userSpaceOnUse"  x1="22221.942" y1="65235.931" x2="21871.49" y2="85161.234">
			<stop offset="0" stop-color="#3696ff"  />
			<stop offset="0.32" stop-color="#1e79f1"  />
			<stop offset="0.64" stop-color="#0c5ac0"  />
			<stop offset="0.86" stop-color="#073f82"  />
			<stop offset="1" stop-color="#042d59"  />
		</linearGradient>
		<linearGradient id="grd6" gradientUnits="userSpaceOnUse"  x1="12591.328" y1="12814.932" x2="12591.328" y2="10741.336">
			<stop offset="0" stop-color="#3696ff"  />
			<stop offset="0.32" stop-color="#1e79f1"  />
			<stop offset="0.64" stop-color="#0c5ac0"  />
			<stop offset="0.86" stop-color="#073f82"  />
			<stop offset="1" stop-color="#042d59"  />
		</linearGradient>
		<linearGradient id="grd7" gradientUnits="userSpaceOnUse"  x1="13514.545" y1="11403.42" x2="12241.88" y2="12060.766">
			<stop offset="0" stop-color="#3696ff"  />
			<stop offset="0.32" stop-color="#1e79f1"  />
			<stop offset="0.64" stop-color="#0c5ac0"  />
			<stop offset="0.86" stop-color="#073f82"  />
			<stop offset="1" stop-color="#042d59"  />
		</linearGradient>
		<linearGradient id="grd8" gradientUnits="userSpaceOnUse"  x1="12591.328" y1="12763.732" x2="12591.328" y2="10690.136">
			<stop offset="0" stop-color="#3696ff"  />
			<stop offset="0.32" stop-color="#1e79f1"  />
			<stop offset="0.64" stop-color="#0c5ac0"  />
			<stop offset="0.86" stop-color="#073f82"  />
			<stop offset="1" stop-color="#042d59"  />
		</linearGradient>
		<linearGradient id="grd9" gradientUnits="userSpaceOnUse"  x1="12004.941" y1="14660.992" x2="12689.117" y2="10065.132">
			<stop offset="0" stop-color="#3696ff"  />
			<stop offset="0.32" stop-color="#1e79f1"  />
			<stop offset="0.64" stop-color="#0c5ac0"  />
			<stop offset="0.86" stop-color="#073f82"  />
			<stop offset="1" stop-color="#042d59"  />
		</linearGradient>
		<linearGradient id="grd10" gradientUnits="userSpaceOnUse"  x1="30324.878" y1="88" x2="57035.159" y2="88">
			<stop offset="0" stop-color="#3696ff"  />
			<stop offset="0.32" stop-color="#1e79f1"  />
			<stop offset="0.64" stop-color="#0c5ac0"  />
			<stop offset="0.86" stop-color="#073f82"  />
			<stop offset="1" stop-color="#042d59"  />
		</linearGradient>
	</defs>
	<style>
		tspan { white-space:pre }
		.shp0 { fill: url(#grd1) } 
		.shp1 { fill: url(#grd2) } 
		.shp2 { fill: url(#grd3) } 
		.shp3 { fill: url(#grd4) } 
		.shp4 { fill: url(#grd5) } 
		.shp5 { fill: url(#grd6) } 
		.shp6 { fill: url(#grd7) } 
		.shp7 { fill: url(#grd8) } 
		.shp8 { fill: url(#grd9) } 
		.shp9 { fill: url(#grd10) } 
		.shp10 { fill: #ffffff } 
	</style>
	<path id="Layer" class="shp0" d="M393.19 172.3L350.07 172.3C347.35 182.45 338.91 189.54 328.19 191.97C328.52 192.04 328.86 192.11 329.2 192.17C329.53 192.24 329.87 192.3 330.21 192.35C330.54 192.41 330.88 192.46 331.22 192.5C331.56 192.55 331.9 192.59 332.24 192.63C332.64 192.67 333.04 192.71 333.44 192.75C333.84 192.78 334.24 192.81 334.64 192.83C335.04 192.85 335.44 192.87 335.85 192.88C336.25 192.89 336.65 192.9 337.05 192.9L337.05 192.9C336.65 192.9 336.25 192.89 335.85 192.88C335.44 192.87 335.04 192.85 334.64 192.83C334.24 192.81 333.84 192.78 333.44 192.75C333.04 192.71 332.64 192.67 332.24 192.63C331.9 192.59 331.56 192.55 331.22 192.5C330.88 192.46 330.54 192.41 330.2 192.35C329.86 192.3 329.53 192.24 329.19 192.17C328.85 192.11 328.52 192.04 328.18 191.97C311.92 188.44 301.72 175.07 301.72 156.97C301.72 138.87 311.91 125.53 328.17 121.97C329.49 121.69 330.84 121.47 332.23 121.31C332.63 121.27 333.03 121.23 333.43 121.19C333.83 121.16 334.23 121.13 334.64 121.11C335.04 121.09 335.44 121.07 335.84 121.06C336.25 121.05 336.65 121.04 337.05 121.04L337.05 121.04C336.65 121.04 336.25 121.05 335.85 121.06C335.44 121.07 335.04 121.09 334.64 121.11C334.24 121.13 333.84 121.16 333.44 121.19C333.04 121.23 332.64 121.27 332.24 121.31C330.85 121.47 329.49 121.69 328.18 121.97C338.86 124.4 347.18 131.5 350.07 141.64L402.23 141.64C397.32 110.33 369.74 88 337.05 88C335.46 88 333.89 88.06 332.33 88.16C330.84 88.06 329.33 88 327.82 88C326.31 88 325.05 88 323.69 88.11C322.33 88.22 321.13 88 319.84 88C279.84 88 250.84 118 250.84 157C250.84 196 279.75 226 319.84 226C321.14 226 322.42 226 323.69 225.89C324.96 225.78 326.43 226 327.82 226C329.21 226 330.82 225.94 332.33 225.84C333.89 225.94 335.46 226 337.05 226C369.93 226 397.51 203.52 402.42 172.34L393.19 172.3Z" />
	<path id="Layer" class="shp1" d="M258.86 157C258.86 119.43 285.79 90.14 323.69 88.15C322.42 88.08 321.13 88.04 319.84 88.04C279.84 88.04 250.84 118.04 250.84 157.04C250.84 196.04 279.75 226.04 319.84 226.04C321.13 226.04 322.42 226.04 323.69 225.93C285.8 223.86 258.86 194.57 258.86 157Z" />
	<path id="Layer" class="shp2" d="M358.05 172.3L350.05 172.3C347.33 182.45 338.89 189.54 328.17 191.97C329.5 192.25 330.85 192.47 332.22 192.63C344.8 191.19 355 183.65 358.05 172.3Z" />
	<path id="Layer" class="shp3" d="M332.24 121.37C330.85 121.53 329.49 121.75 328.18 122.03C338.86 124.46 347.18 131.56 350.07 141.7L358.07 141.7C354.83 130.35 344.77 122.81 332.24 121.37Z" />
	<path id="Layer" class="shp4" d="M328.29 225.45C292.86 221.45 268.09 193.02 268.09 157C268.09 120.98 292.85 92.59 328.29 88.55C329.62 88.4 330.97 88.28 332.29 88.2C330.8 88.1 329.29 88.04 327.78 88.04C326.27 88.04 325.01 88.04 323.65 88.15C285.75 90.15 258.82 119.43 258.82 157C258.82 194.57 285.76 223.86 323.65 225.85C325.02 225.92 326.39 225.96 327.78 225.96C329.17 225.96 330.78 225.9 332.29 225.8C331 225.72 329.63 225.6 328.29 225.45Z" />
	<path id="Layer" class="shp5" d="M332.24 192.63C332.64 192.67 333.04 192.71 333.44 192.75C333.84 192.78 334.24 192.81 334.65 192.83C335.05 192.85 335.45 192.87 335.85 192.88C336.26 192.89 336.66 192.9 337.06 192.9C351.6 192.9 363.89 184.96 367.29 172.3L358.05 172.3C355 183.65 344.8 191.19 332.24 192.63Z" />
	<path id="Layer" class="shp6" d="M332.24 192.63C332.64 192.67 333.04 192.71 333.44 192.75C333.84 192.78 334.24 192.81 334.65 192.83C335.05 192.85 335.45 192.87 335.85 192.88C336.26 192.89 336.66 192.9 337.06 192.9C351.6 192.9 363.89 184.96 367.29 172.3L358.05 172.3C355 183.65 344.8 191.19 332.24 192.63Z" />
	<path id="Layer" class="shp7" d="M337.06 121.1C336.66 121.1 336.26 121.11 335.85 121.12C335.45 121.13 335.05 121.15 334.65 121.17C334.24 121.19 333.84 121.22 333.44 121.25C333.04 121.29 332.64 121.33 332.24 121.37C344.77 122.81 354.83 130.37 358.05 141.7L367.29 141.7C363.7 129 351.6 121.1 337.06 121.1Z" />
	<path id="Layer" class="shp8" d="M337.06 121.1C336.66 121.1 336.26 121.11 335.85 121.12C335.45 121.13 335.05 121.15 334.65 121.17C334.24 121.19 333.84 121.22 333.44 121.25C333.04 121.29 332.64 121.33 332.24 121.37C344.77 122.81 354.83 130.37 358.05 141.7L367.29 141.7C363.7 129 351.6 121.1 337.06 121.1Z" />
	<path id="Layer" class="shp9" d="M393.19 172.3L367.28 172.3C363.88 184.96 351.6 192.9 337.05 192.9C336.65 192.9 336.25 192.89 335.85 192.88C335.44 192.87 335.04 192.85 334.64 192.83C334.24 192.81 333.84 192.78 333.44 192.75C333.04 192.71 332.64 192.67 332.24 192.63C330.85 192.47 329.5 192.25 328.18 191.97C311.92 188.44 301.72 175.07 301.72 156.97C301.72 138.87 311.91 125.53 328.17 121.97C329.49 121.69 330.84 121.47 332.23 121.31C332.63 121.27 333.03 121.23 333.43 121.19C333.83 121.16 334.23 121.13 334.64 121.11C335.04 121.09 335.44 121.07 335.84 121.06C336.25 121.05 336.65 121.04 337.05 121.04C351.6 121.04 363.69 128.98 367.28 141.64L402.28 141.64C397.32 110.33 369.74 88 337.05 88C335.45 88 333.88 88.06 332.33 88.16C330.96 88.24 329.62 88.36 328.28 88.51C292.85 92.51 268.09 120.94 268.09 156.96C268.09 192.98 292.85 221.37 328.29 225.41C329.62 225.56 330.97 225.68 332.29 225.76C333.85 225.86 335.42 225.92 337.01 225.92C369.89 225.92 397.47 203.44 402.38 172.26L393.19 172.3Z" />
	<path id="Layer" class="shp10" d="M444 157.59C444 139.18 457.68 125.06 476.54 125.06C479.2 125.02 481.85 125.32 484.43 125.95C487.01 126.58 489.5 127.54 491.84 128.8C494.18 130.07 496.34 131.62 498.29 133.43C500.23 135.25 501.94 137.3 503.36 139.54L491 146.69C488.23 141.86 482.87 139 476.52 139C465.43 139 458.28 146.42 458.28 157.59C458.28 168.76 465.43 176.19 476.52 176.19C482.87 176.19 488.32 173.33 491 168.5L503.34 175.65C497.97 184.5 487.96 190.13 476.52 190.13C457.64 190.13 444 176 444 157.59Z" />
	<path id="Layer" class="shp10" d="M510.46 123.63L523.87 123.63L523.87 188.88L510.46 188.88L510.46 123.63Z" />
	<path id="Layer" fill-rule="evenodd" class="shp10" d="M579.56 144.19L579.56 188.88L566.15 188.88L566.15 184.68C563.2 188.08 558.82 190.13 552.83 190.13C541.12 190.13 531.47 179.85 531.47 166.53C531.47 153.21 541.12 142.94 552.83 142.94C558.83 142.94 563.2 144.94 566.15 148.39L566.15 144.19L579.56 144.19ZM555.52 155.63C549.36 155.63 544.88 159.83 544.88 166.53C544.88 173.23 549.35 177.44 555.52 177.44C561.69 177.44 566.15 173.24 566.15 166.53C566.15 159.83 561.68 155.63 555.52 155.63Z" />
	<path id="Layer" fill-rule="evenodd" class="shp10" d="M637.48 166.53C637.48 179.85 627.83 190.13 616.12 190.13C610.12 190.13 605.75 188.13 602.8 184.68L602.8 206.76L589.39 206.76L589.39 144.19L602.8 144.19L602.8 148.39C605.8 144.99 610.13 142.94 616.12 142.94C627.83 142.94 637.48 153.21 637.48 166.53ZM624.07 166.53C624.07 159.83 619.6 155.63 613.44 155.63C607.28 155.63 602.8 159.83 602.8 166.53C602.8 173.23 607.27 177.44 613.44 177.44C619.61 177.44 624.07 173.24 624.07 166.53Z" />
	<path id="Layer" class="shp10" d="M661.17 157.06L661.17 172.88C661.17 176.72 664.48 177.08 670.37 176.72L670.37 188.88C652.86 190.67 647.76 185.39 647.76 172.88L647.76 157.06L640.61 157.06L640.61 144.19L647.76 144.19L647.76 135.7L661.17 131.7L661.17 144.22L670.37 144.22L670.37 157.09L661.17 157.06Z" />
	<path id="Layer" fill-rule="evenodd" class="shp10" d="M689.4 144.58C698.25 140.88 708.46 142.89 715.25 149.66C722.04 156.42 724.09 166.62 720.43 175.48C716.76 184.35 708.12 190.13 698.53 190.13C695.42 190.17 692.33 189.58 689.44 188.41C686.56 187.24 683.94 185.5 681.73 183.3C679.52 181.11 677.78 178.49 676.6 175.61C675.41 172.73 674.82 169.64 674.84 166.53C674.8 156.94 680.55 148.27 689.4 144.58ZM708.84 166.53C708.84 160.19 704.37 155.99 698.56 155.99C692.75 155.99 688.28 160.19 688.28 166.53C688.28 172.87 692.75 177.08 698.56 177.08C704.37 177.08 708.81 172.88 708.81 166.53L708.84 166.53Z" />
	<path id="Layer" class="shp10" d="M772.72 161.44L772.72 188.88L759.31 188.88L759.31 163.41C759.31 157.86 755.83 155.27 751.54 155.27C746.62 155.27 743.22 158.13 743.22 164.48L743.22 188.88L729.82 188.88L729.82 144.19L743.22 144.19L743.22 148.39C745.64 145.08 750.11 142.94 756.01 142.94C765 142.94 772.72 149.37 772.72 161.44Z" />
	<path id="Layer" class="shp10" d="M824.83 161.44L824.83 188.88L811.42 188.88L811.42 163.41C811.42 157.86 807.94 155.27 803.65 155.27C798.73 155.27 795.33 158.13 795.33 164.48L795.33 188.88L781.93 188.88L781.93 144.19L795.33 144.19L795.33 148.39C797.75 145.08 802.22 142.94 808.12 142.94C817.15 142.94 824.83 149.37 824.83 161.44Z" />
	<g id="Folder 18">
	</g>
</svg>